<?xml version="1.0" standalone="no"?>
<!DOCTYPE svg PUBLIC "-//W3C//DTD SVG 20010904//EN"
 "http://www.w3.org/TR/2001/REC-SVG-20010904/DTD/svg10.dtd">
<svg version="1.0" xmlns="http://www.w3.org/2000/svg"
 width="192.000000pt" height="192.000000pt" viewBox="0 0 192.000000 192.000000"
 preserveAspectRatio="xMidYMid meet">
<metadata>
Created by potrace 1.11, written by Peter Selinger 2001-2013
</metadata>
<g transform="translate(0.000000,192.000000) scale(0.100000,-0.100000)"
fill="#000000" stroke="none">
<path d="M335 1648 c-18 -85 -85 -990 -85 -1165 l0 -63 88 0 88 0 12 288 c20
467 35 648 51 638 10 -7 157 -319 267 -566 l82 -185 77 0 76 0 78 175 c102
230 262 570 272 576 16 10 31 -175 51 -643 l12 -283 89 0 90 0 -7 143 c-14
287 -67 982 -82 1075 l-5 32 -80 0 c-79 0 -79 0 -99 -32 -45 -73 -213 -416
-300 -613 -51 -116 -94 -211 -94 -212 -1 -1 -30 64 -65 145 -67 155 -295 624
-330 680 -21 32 -21 32 -101 32 -74 0 -80 -1 -85 -22z"/>
</g>
</svg>
